<?xml version="1.0" encoding="UTF-8" standalone="no"?>
<svg
   xmlns:dc="http://purl.org/dc/elements/1.1/"
   xmlns:cc="http://creativecommons.org/ns#"
   xmlns:rdf="http://www.w3.org/1999/02/22-rdf-syntax-ns#"
   xmlns:svg="http://www.w3.org/2000/svg"
   xmlns="http://www.w3.org/2000/svg"
   xmlns:sodipodi="http://sodipodi.sourceforge.net/DTD/sodipodi-0.dtd"
   xmlns:inkscape="http://www.inkscape.org/namespaces/inkscape"
   version="1.1"
   width="21"
   height="21"
   viewBox="0 0 0 76.01"
   enable-background="new 0 0 76.01 76.01"
   xml:space="preserve"
   id="svg2"
   inkscape:version="0.48.4 r9939"
   sodipodi:docname="appbar.calendar.31.svg"><metadata
     id="metadata10"><rdf:RDF><cc:Work
         rdf:about=""><dc:format>image/svg+xml</dc:format><dc:type
           rdf:resource="http://purl.org/dc/dcmitype/StillImage" /><dc:title></dc:title></cc:Work></rdf:RDF></metadata><defs
     id="defs8" /><sodipodi:namedview
     pagecolor="#ffffff"
     bordercolor="#666666"
     borderopacity="1"
     objecttolerance="10"
     gridtolerance="10"
     guidetolerance="10"
     inkscape:pageopacity="0"
     inkscape:pageshadow="2"
     inkscape:window-width="1317"
     inkscape:window-height="744"
     id="namedview6"
     showgrid="false"
     inkscape:zoom="8"
     inkscape:cx="6.1955999"
     inkscape:cy="15.350689"
     inkscape:window-x="49"
     inkscape:window-y="24"
     inkscape:window-maximized="1"
     inkscape:current-layer="svg2" /><g
     id="g2989"
     style="fill:#ffffff;fill-opacity:1"><path
       transform="matrix(1.5127273,0,0,1.7702128,-5.7618185,-13.397873)"
       d="m 17.625,13.5 a 6.875,5.875 0 1 1 -13.75,0 6.875,5.875 0 1 1 13.75,0 z"
       sodipodi:ry="5.875"
       sodipodi:rx="6.875"
       sodipodi:cy="13.5"
       sodipodi:cx="10.75"
       id="path2987"
       style="color:#000000;fill:#ffffff;fill-opacity:1;fill-rule:nonzero;stroke:none;stroke-width:2;marker:none;visibility:visible;display:inline;overflow:visible;enable-background:accumulate"
       sodipodi:type="arc" /></g><path
     d="m 6.8312626,13.255967 1.116908,-0.13641 c 0.031565,0.285311 0.116967,0.503463 0.2561457,0.654424 0.1392099,0.150993 0.3077077,0.226489 0.5054926,0.226489 0.2119065,0 0.3905564,-0.08174 0.5360112,-0.245254 0.1454244,-0.163483 0.2181211,-0.384128 0.2181211,-0.661932 0,-0.262759 -0.065222,-0.470912 -0.1956935,-0.624398 -0.1304723,-0.153484 -0.2896173,-0.230241 -0.4774355,-0.230241 -0.1237967,0 -0.2717434,0.0271 -0.443748,0.08134 L 8.4492637,11.35773 c 0.2518085,0.0075 0.443995,-0.05276 0.5765285,-0.180803 0.1325647,-0.128073 0.1988318,-0.297616 0.1988318,-0.508661 0,-0.180188 -0.050699,-0.32389 -0.1521,-0.431074 -0.1013699,-0.107218 -0.2363953,-0.16081 -0.405108,-0.16081 -0.1653603,0 -0.3068463,0.06131 -0.4244285,0.183942 -0.1176127,0.122628 -0.1892944,0.301586 -0.2150442,0.536811 L 6.9110656,10.635717 C 6.980874,10.283709 7.0859937,10.002583 7.2264335,9.792338 7.3668742,9.5821237 7.5627826,9.416764 7.8141603,9.2961976 8.0655372,9.175662 8.3470642,9.1153941 8.6586783,9.1153941 c 0.5343506,0 0.9623466,0.171851 1.283929,0.515553 0.2659287,0.2819569 0.3988937,0.6001849 0.3988937,0.9547169 0,0.503031 -0.278389,0.904293 -0.8351661,1.203756 0.3257662,0.07008 0.5862811,0.22732 0.7815741,0.471745 0.195294,0.244423 0.29294,0.539732 0.29294,0.885927 0,0.5022 -0.180957,0.930136 -0.542871,1.283836 -0.3619145,0.3537 -0.812124,0.530566 -1.3506271,0.530566 -0.5110614,0 -0.934689,-0.157269 -1.2708231,-0.471745 C 7.0803634,14.175243 6.8852853,13.763983 6.8312626,13.255967 z m 6.7450104,1.705527 -0.923091,0 0,-4.153833 c -0.412029,0.427965 -0.875929,0.701309 -1.434552,0.905986 l 0,-1.136721 c 0.294878,-0.09472 0.615075,-0.27405 0.9605,-0.537919 0.345456,-0.263897 0.582651,-0.5717582 0.711555,-0.9236127 l 0.685588,0 0,5.8460997 z M 4.346223,16.5 l 0,-10.4614638 1.5384443,0 0,-0.92306 C 5.8846977,4.7755579 6.1601949,4.5000919 6.5000507,4.5000919 l 1.2307374,0 c 0.3398567,0 0.6153531,0.275466 0.6153842,0.6152916 l 0,0.9231527 4.3076557,0 -3.1e-5,-0.9231527 C 12.653797,4.7755276 12.929325,4.5 13.269182,4.5 l 1.230767,0 c 0.339857,0 0.615354,0.2755276 0.615354,0.6153835 l 3e-5,0.9231527 1.538444,0 0,10.4614638 -12.307554,0 z m 0.9230608,-0.923061 10.4614022,0 0,-7.0768978 -10.4614022,0 0,7.0768978 z M 13.730711,5.1154762 c -0.254915,0 -0.461529,0.2066454 -0.461529,0.4615299 l 0,0.9230912 c 0,0.2548846 0.206614,0.4615304 0.461529,0.4615304 l 0.307677,0 c 0.254915,0 0.46153,-0.2066458 0.46153,-0.4615304 l 0,-0.9230912 c 0,-0.2548845 -0.206615,-0.4615299 -0.46153,-0.4615299 l -0.307677,0 z m -6.7691294,0 c -0.2549158,0 -0.4615309,0.2066454 -0.4615309,0.4615299 l 0,0.9230609 c 0,0.2549149 0.2066151,0.4615299 0.4615309,0.4615299 l 0.3076765,0 c 0.2549148,0 0.46153,-0.206615 0.46153,-0.4615299 l 0,-0.9230609 c 0,-0.2548845 -0.2066152,-0.4615299 -0.46153,-0.4615299 l -0.3076765,0 z"
     id="path4"
     inkscape:connector-curvature="0"
     style="fill:#000000;fill-opacity:1;stroke-width:0.2;stroke-linejoin:round" /></svg>